<mxfile host="app.diagrams.net" modified="2024-03-22T08:29:00.604Z" agent="Mozilla/5.0 (Macintosh; Intel Mac OS X 10_15_7) AppleWebKit/537.36 (KHTML, like Gecko) Chrome/123.0.0.0 Safari/537.36" etag="S3hqL8U80CUonJuWh81n" version="24.0.7" type="google">
  <diagram name="Page-1" id="oZTFfMW2nfK7jXhLvZKB">
    <mxGraphModel dx="851" dy="626" grid="1" gridSize="10" guides="1" tooltips="1" connect="1" arrows="1" fold="1" page="1" pageScale="1" pageWidth="827" pageHeight="1169" math="0" shadow="0">
      <root>
        <mxCell id="0" />
        <mxCell id="1" parent="0" />
        <mxCell id="i17i1sX3bx6Vb6lR5N0H-2" value="Account" style="swimlane;whiteSpace=wrap;html=1;" vertex="1" parent="1">
          <mxGeometry x="350" y="170" width="200" height="200" as="geometry" />
        </mxCell>
        <mxCell id="i17i1sX3bx6Vb6lR5N0H-15" value="User name&lt;div&gt;password&lt;/div&gt;" style="text;html=1;align=center;verticalAlign=middle;resizable=0;points=[];autosize=1;strokeColor=none;fillColor=none;" vertex="1" parent="i17i1sX3bx6Vb6lR5N0H-2">
          <mxGeometry x="20" y="50" width="80" height="40" as="geometry" />
        </mxCell>
        <mxCell id="i17i1sX3bx6Vb6lR5N0H-18" value="" style="edgeStyle=orthogonalEdgeStyle;rounded=0;orthogonalLoop=1;jettySize=auto;html=1;" edge="1" parent="1" source="i17i1sX3bx6Vb6lR5N0H-3" target="i17i1sX3bx6Vb6lR5N0H-16">
          <mxGeometry relative="1" as="geometry" />
        </mxCell>
        <mxCell id="i17i1sX3bx6Vb6lR5N0H-33" value="n:n" style="edgeLabel;html=1;align=center;verticalAlign=middle;resizable=0;points=[];" vertex="1" connectable="0" parent="i17i1sX3bx6Vb6lR5N0H-18">
          <mxGeometry x="-0.05" y="3" relative="1" as="geometry">
            <mxPoint as="offset" />
          </mxGeometry>
        </mxCell>
        <mxCell id="i17i1sX3bx6Vb6lR5N0H-3" value="USer" style="swimlane;whiteSpace=wrap;html=1;" vertex="1" parent="1">
          <mxGeometry x="100" y="170" width="200" height="200" as="geometry" />
        </mxCell>
        <mxCell id="i17i1sX3bx6Vb6lR5N0H-5" value="&lt;div&gt;name&lt;/div&gt;&lt;div&gt;&lt;span style=&quot;background-color: initial;&quot;&gt;email&lt;/span&gt;&lt;/div&gt;&lt;div&gt;&lt;span style=&quot;background-color: initial;&quot;&gt;phone no&lt;/span&gt;&lt;br&gt;&lt;/div&gt;&lt;div&gt;Password&lt;/div&gt;" style="text;html=1;align=center;verticalAlign=middle;resizable=0;points=[];autosize=1;strokeColor=none;fillColor=none;" vertex="1" parent="i17i1sX3bx6Vb6lR5N0H-3">
          <mxGeometry x="19" y="50" width="80" height="70" as="geometry" />
        </mxCell>
        <mxCell id="i17i1sX3bx6Vb6lR5N0H-4" value="" style="endArrow=classic;html=1;rounded=0;exitX=1;exitY=0.25;exitDx=0;exitDy=0;entryX=0;entryY=0.25;entryDx=0;entryDy=0;" edge="1" parent="1" source="i17i1sX3bx6Vb6lR5N0H-3" target="i17i1sX3bx6Vb6lR5N0H-2">
          <mxGeometry width="50" height="50" relative="1" as="geometry">
            <mxPoint x="320" y="350" as="sourcePoint" />
            <mxPoint x="430" y="220" as="targetPoint" />
          </mxGeometry>
        </mxCell>
        <mxCell id="i17i1sX3bx6Vb6lR5N0H-6" value="Account ID" style="text;html=1;align=center;verticalAlign=middle;resizable=0;points=[];autosize=1;strokeColor=none;fillColor=none;" vertex="1" parent="1">
          <mxGeometry x="500" y="168" width="80" height="30" as="geometry" />
        </mxCell>
        <mxCell id="i17i1sX3bx6Vb6lR5N0H-7" value="" style="shape=flexArrow;endArrow=classic;html=1;rounded=0;" edge="1" parent="1">
          <mxGeometry width="50" height="50" relative="1" as="geometry">
            <mxPoint x="364" y="420" as="sourcePoint" />
            <mxPoint x="414" y="370" as="targetPoint" />
          </mxGeometry>
        </mxCell>
        <mxCell id="i17i1sX3bx6Vb6lR5N0H-8" value="Admin" style="whiteSpace=wrap;html=1;" vertex="1" parent="1">
          <mxGeometry x="300" y="420" width="120" height="60" as="geometry" />
        </mxCell>
        <mxCell id="i17i1sX3bx6Vb6lR5N0H-9" value="" style="shape=flexArrow;endArrow=classic;html=1;rounded=0;" edge="1" parent="1">
          <mxGeometry width="50" height="50" relative="1" as="geometry">
            <mxPoint x="470" y="430" as="sourcePoint" />
            <mxPoint x="450" y="370" as="targetPoint" />
          </mxGeometry>
        </mxCell>
        <mxCell id="i17i1sX3bx6Vb6lR5N0H-10" value="Buyer" style="whiteSpace=wrap;html=1;" vertex="1" parent="1">
          <mxGeometry x="440" y="420" width="120" height="60" as="geometry" />
        </mxCell>
        <mxCell id="i17i1sX3bx6Vb6lR5N0H-11" value="" style="shape=singleArrow;direction=north;whiteSpace=wrap;html=1;rotation=-45;" vertex="1" parent="1">
          <mxGeometry x="547.07" y="367.07" width="30" height="60" as="geometry" />
        </mxCell>
        <mxCell id="i17i1sX3bx6Vb6lR5N0H-12" value="Seller" style="text;html=1;align=center;verticalAlign=middle;resizable=0;points=[];autosize=1;strokeColor=none;fillColor=none;" vertex="1" parent="1">
          <mxGeometry x="575" y="428" width="50" height="30" as="geometry" />
        </mxCell>
        <mxCell id="i17i1sX3bx6Vb6lR5N0H-13" value="Text" style="text;html=1;align=center;verticalAlign=middle;resizable=0;points=[];autosize=1;strokeColor=none;fillColor=none;" vertex="1" parent="1">
          <mxGeometry x="175" y="318" width="50" height="30" as="geometry" />
        </mxCell>
        <mxCell id="i17i1sX3bx6Vb6lR5N0H-14" value="Text" style="text;html=1;align=center;verticalAlign=middle;resizable=0;points=[];autosize=1;strokeColor=none;fillColor=none;" vertex="1" parent="1">
          <mxGeometry x="415" y="268" width="50" height="30" as="geometry" />
        </mxCell>
        <mxCell id="i17i1sX3bx6Vb6lR5N0H-16" value="Booking" style="swimlane;whiteSpace=wrap;html=1;" vertex="1" parent="1">
          <mxGeometry x="100" y="450" width="200" height="200" as="geometry" />
        </mxCell>
        <mxCell id="i17i1sX3bx6Vb6lR5N0H-21" value="" style="edgeStyle=orthogonalEdgeStyle;rounded=0;orthogonalLoop=1;jettySize=auto;html=1;" edge="1" parent="1">
          <mxGeometry relative="1" as="geometry">
            <mxPoint x="210" y="510" as="sourcePoint" />
            <mxPoint x="360" y="540" as="targetPoint" />
          </mxGeometry>
        </mxCell>
        <mxCell id="i17i1sX3bx6Vb6lR5N0H-31" value="" style="edgeStyle=orthogonalEdgeStyle;rounded=0;orthogonalLoop=1;jettySize=auto;html=1;" edge="1" parent="1" source="i17i1sX3bx6Vb6lR5N0H-23" target="i17i1sX3bx6Vb6lR5N0H-28">
          <mxGeometry relative="1" as="geometry" />
        </mxCell>
        <mxCell id="i17i1sX3bx6Vb6lR5N0H-23" value="Show" style="swimlane;fontStyle=0;childLayout=stackLayout;horizontal=1;startSize=30;horizontalStack=0;resizeParent=1;resizeParentMax=0;resizeLast=0;collapsible=1;marginBottom=0;whiteSpace=wrap;html=1;" vertex="1" parent="1">
          <mxGeometry x="360" y="500" width="140" height="120" as="geometry" />
        </mxCell>
        <mxCell id="i17i1sX3bx6Vb6lR5N0H-24" value="Show ID" style="text;strokeColor=none;fillColor=none;align=left;verticalAlign=middle;spacingLeft=4;spacingRight=4;overflow=hidden;points=[[0,0.5],[1,0.5]];portConstraint=eastwest;rotatable=0;whiteSpace=wrap;html=1;" vertex="1" parent="i17i1sX3bx6Vb6lR5N0H-23">
          <mxGeometry y="30" width="140" height="30" as="geometry" />
        </mxCell>
        <mxCell id="i17i1sX3bx6Vb6lR5N0H-25" value="Start Time" style="text;strokeColor=none;fillColor=none;align=left;verticalAlign=middle;spacingLeft=4;spacingRight=4;overflow=hidden;points=[[0,0.5],[1,0.5]];portConstraint=eastwest;rotatable=0;whiteSpace=wrap;html=1;" vertex="1" parent="i17i1sX3bx6Vb6lR5N0H-23">
          <mxGeometry y="60" width="140" height="30" as="geometry" />
        </mxCell>
        <mxCell id="i17i1sX3bx6Vb6lR5N0H-26" value="End Time&lt;div&gt;&lt;br&gt;&lt;/div&gt;" style="text;strokeColor=none;fillColor=none;align=left;verticalAlign=middle;spacingLeft=4;spacingRight=4;overflow=hidden;points=[[0,0.5],[1,0.5]];portConstraint=eastwest;rotatable=0;whiteSpace=wrap;html=1;" vertex="1" parent="i17i1sX3bx6Vb6lR5N0H-23">
          <mxGeometry y="90" width="140" height="30" as="geometry" />
        </mxCell>
        <mxCell id="i17i1sX3bx6Vb6lR5N0H-28" value="&lt;div&gt;Movie&lt;/div&gt;&lt;div&gt;&lt;br&gt;&lt;/div&gt;&lt;div&gt;Title&lt;/div&gt;&lt;div&gt;Name&lt;/div&gt;&lt;div&gt;Description&lt;/div&gt;&lt;div&gt;Genre&lt;/div&gt;&lt;div&gt;&lt;br&gt;&lt;/div&gt;" style="text;strokeColor=none;fillColor=none;align=left;verticalAlign=middle;spacingLeft=4;spacingRight=4;overflow=hidden;points=[[0,0.5],[1,0.5]];portConstraint=eastwest;rotatable=0;whiteSpace=wrap;html=1;" vertex="1" parent="1">
          <mxGeometry x="560" y="495" width="140" height="130" as="geometry" />
        </mxCell>
        <mxCell id="i17i1sX3bx6Vb6lR5N0H-29" value="Cinema Hall" style="text;strokeColor=none;fillColor=none;align=left;verticalAlign=middle;spacingLeft=4;spacingRight=4;overflow=hidden;points=[[0,0.5],[1,0.5]];portConstraint=eastwest;rotatable=0;whiteSpace=wrap;html=1;" vertex="1" parent="1">
          <mxGeometry x="361" y="710" width="140" height="30" as="geometry" />
        </mxCell>
        <mxCell id="i17i1sX3bx6Vb6lR5N0H-30" style="edgeStyle=orthogonalEdgeStyle;rounded=0;orthogonalLoop=1;jettySize=auto;html=1;entryX=0.443;entryY=0.033;entryDx=0;entryDy=0;entryPerimeter=0;" edge="1" parent="1" source="i17i1sX3bx6Vb6lR5N0H-23" target="i17i1sX3bx6Vb6lR5N0H-29">
          <mxGeometry relative="1" as="geometry">
            <Array as="points">
              <mxPoint x="420" y="711" />
            </Array>
          </mxGeometry>
        </mxCell>
        <mxCell id="i17i1sX3bx6Vb6lR5N0H-32" value="1:n" style="edgeLabel;html=1;align=center;verticalAlign=middle;resizable=0;points=[];" vertex="1" connectable="0" parent="i17i1sX3bx6Vb6lR5N0H-30">
          <mxGeometry x="-0.2765" relative="1" as="geometry">
            <mxPoint as="offset" />
          </mxGeometry>
        </mxCell>
      </root>
    </mxGraphModel>
  </diagram>
</mxfile>
